<?xml version="1.0" encoding="UTF-8" standalone="no"?>
<!DOCTYPE svg PUBLIC "-//W3C//DTD SVG 1.0//EN"
 "http://www.w3.org/TR/2001/REC-SVG-20010904/DTD/svg10.dtd" [
 <!ATTLIST svg xmlns:xlink CDATA #FIXED "http://www.w3.org/1999/xlink">
]>
<!-- Generated by Graphviz version 2.20.1 (Wed Jun 25 14:44:16 GMT 2008)
     For user: olli -->
<!-- Title: G Pages: 1 -->
<svg width="173pt" height="260pt"
 viewBox="0.00 0.00 173.00 260.00" xmlns="http://www.w3.org/2000/svg" xmlns:xlink="http://www.w3.org/1999/xlink">
<g id="graph0" class="graph" transform="scale(1 1) rotate(0) translate(4 256)">
<title>G</title>
<polygon style="fill:#edf5ff;stroke:#edf5ff;" points="-4,4 -4,-256 169,-256 169,4 -4,4"/>
<!-- Isabel -->
<g id="node1" class="node"><title>Isabel</title>
<ellipse style="fill:white;stroke:black;" cx="33" cy="-234" rx="32.8702" ry="18"/>
<text text-anchor="middle" x="33" y="-229.4" style="font-family:Times New Roman;font-size:14.00;">Isabel</text>
</g>
<!-- Claus -->
<g id="node2" class="node"><title>Claus</title>
<ellipse style="fill:white;stroke:red;" cx="71" cy="-18" rx="32.1994" ry="18"/>
<text text-anchor="middle" x="71" y="-13.4" style="font-family:Times New Roman;font-size:14.00;">Claus</text>
</g>
<!-- Isabel&#45;&gt;Claus -->
<g id="edge2" class="edge"><title>Isabel&#45;&gt;Claus</title>
<path style="fill:none;stroke:black;" d="M36,-216C42,-178 58,-91 66,-46"/>
<polygon style="fill:black;stroke:black;" points="69.4708,-46.4922 68,-36 62.6067,-45.1194 69.4708,-46.4922"/>
</g>
<!-- Marivic -->
<g id="node4" class="node"><title>Marivic</title>
<ellipse style="fill:white;stroke:blue;" cx="110" cy="-162" rx="38.9076" ry="18"/>
<text text-anchor="middle" x="110" y="-157.4" style="font-family:Times New Roman;font-size:14.00;">Marivic</text>
</g>
<!-- Isabel&#45;&gt;Marivic -->
<g id="edge4" class="edge"><title>Isabel&#45;&gt;Marivic</title>
<path style="fill:none;stroke:black;" d="M50,-218C60,-208 73,-196 85,-185"/>
<polygon style="fill:black;stroke:black;" points="87.4038,-187.546 92,-178 82.454,-182.596 87.4038,-187.546"/>
</g>
<!-- Robert -->
<g id="node3" class="node"><title>Robert</title>
<ellipse style="fill:white;stroke:black;" cx="121" cy="-234" rx="36.8951" ry="18"/>
<text text-anchor="middle" x="121" y="-229.4" style="font-family:Times New Roman;font-size:14.00;">Robert</text>
</g>
<!-- Robert&#45;&gt;Marivic -->
<g id="edge6" class="edge"><title>Robert&#45;&gt;Marivic</title>
<path style="fill:none;stroke:black;" d="M118,-216C117,-208 115,-199 114,-190"/>
<polygon style="fill:black;stroke:black;" points="117.478,-189.602 113,-180 110.512,-190.299 117.478,-189.602"/>
</g>
<!-- Marivic&#45;&gt;Claus -->
<g id="edge8" class="edge"><title>Marivic&#45;&gt;Claus</title>
<path style="fill:none;stroke:black;" d="M103,-144C99,-134 94,-120 90,-108 84,-87 79,-64 76,-46"/>
<polygon style="fill:black;stroke:black;" points="79.3933,-45.1194 74,-36 72.5292,-46.4922 79.3933,-45.1194"/>
</g>
<!-- Oliver -->
<g id="node5" class="node"><title>Oliver</title>
<ellipse style="fill:white;stroke:red;" cx="132" cy="-90" rx="33.0404" ry="18"/>
<text text-anchor="middle" x="132" y="-85.4" style="font-family:Times New Roman;font-size:14.00;">Oliver</text>
</g>
<!-- Marivic&#45;&gt;Oliver -->
<g id="edge10" class="edge"><title>Marivic&#45;&gt;Oliver</title>
<path style="fill:none;stroke:black;" d="M116,-144C118,-136 121,-126 124,-118"/>
<polygon style="fill:black;stroke:black;" points="127.479,-118.584 127,-108 120.774,-116.573 127.479,-118.584"/>
</g>
<!-- Oliver&#45;&gt;Claus -->
<g id="edge12" class="edge"><title>Oliver&#45;&gt;Claus</title>
<path style="fill:none;stroke:black;" d="M118,-73C110,-64 100,-53 92,-43"/>
<polygon style="fill:black;stroke:black;" points="94.2191,-40.221 85,-35 88.9511,-44.8306 94.2191,-40.221"/>
</g>
</g>
</svg>
